<svg xmlns="http://www.w3.org/2000/svg" width="113.185" height="59.668" viewBox="0 0 113.185 59.668">
  <g id="logo" transform="translate(-426.406 -238.687)">
    <g id="Group_3687" data-name="Group 3687" transform="translate(426.406 238.687)">
      <g id="Group_3686" data-name="Group 3686" transform="translate(28.512 17.375)">
        <path id="Path_28696" data-name="Path 28696" d="M549.068,361.259a4.3,4.3,0,0,1,3.744,1.266,4.585,4.585,0,0,1,1.373,3.744,4.249,4.249,0,0,1-1.993,3.609,2.79,2.79,0,0,1-2.451.35,2.375,2.375,0,0,1-1.643-1.7,1.227,1.227,0,0,1,.673-1.616,1.4,1.4,0,0,1,1.75.269.9.9,0,0,0,.377-.269,1.407,1.407,0,0,0,.431-.862,1.535,1.535,0,0,0-.593-1.67,2.471,2.471,0,0,0-1.885-.108,4.771,4.771,0,0,0-1.67,1.023,6.412,6.412,0,0,0-1.616,3.986v.431q.162,1.725.216,4.74a15.828,15.828,0,0,1,.027,2.478,6.459,6.459,0,0,1-.512,2.37,1.388,1.388,0,0,1-1.347.754,1.648,1.648,0,0,1-1.347-.808.048.048,0,0,0-.054.054,4.28,4.28,0,0,1-.458-1.078,8.209,8.209,0,0,1-.242-1q-.054-.35-.108-1.293t-.054-1.05q-.054-.861-.215-2.451t-.162-1.912q-.377-4.04-1.023-8.457a1.5,1.5,0,0,1,.673-1.508,1.1,1.1,0,0,1,1.535.216,8.952,8.952,0,0,1,1.993,3.286A6.75,6.75,0,0,1,549.068,361.259Zm1.508,5.926a.876.876,0,0,1,.161.215A.8.8,0,0,1,550.576,367.184Z" transform="translate(-540.274 -347.249)" fill="#4c4c4e"/>
        <path id="Path_28697" data-name="Path 28697" d="M621.7,372.056a1.068,1.068,0,0,1,1.293-.108.832.832,0,0,1,.485,1.131,16.843,16.843,0,0,1-1.158,2.478,15.306,15.306,0,0,1-1.8,2.532,11.163,11.163,0,0,1-2.262,2.02,4.392,4.392,0,0,1-2.559.754,4.057,4.057,0,0,1-2.613-1.1,5.744,5.744,0,0,1-1.508-2.209,6.992,6.992,0,0,1-4.633,2.155,6.189,6.189,0,0,1-4.094-1.077,6.847,6.847,0,0,1-2.532-3.151,10.9,10.9,0,0,1-.727-4.175,8.453,8.453,0,0,1,1.05-4.094,7.616,7.616,0,0,1,2.855-3.043,7.137,7.137,0,0,1,3.986-1.1,7.063,7.063,0,0,1,5.71,2.586q.162-.376.539-1.158t.539-1.1q.376-.861,1.373-.431a.985.985,0,0,1,.674,1.347,57.14,57.14,0,0,0-1.67,6.464q-.862,4.2.377,6.087a1.534,1.534,0,0,0,.916.727,1.381,1.381,0,0,0,1.077-.189,6.26,6.26,0,0,0,1.077-.835,11.213,11.213,0,0,0,1.1-1.239q.566-.727,1-1.347t.862-1.158Q621.487,372.272,621.7,372.056Zm-15.514,2.963a7.434,7.434,0,0,0,1.024.216,1.71,1.71,0,0,0,.943-.189,6.245,6.245,0,0,0,.862-.485,3.994,3.994,0,0,0,.754-.727q.4-.485.674-.835t.592-.835c.035-.215.072-.412.108-.592a19.566,19.566,0,0,1,.916-3.34q-3.017-2.477-5.333-1.131a4.327,4.327,0,0,0-1.778,2.047,5.292,5.292,0,0,0-.539,2.155v1.023a.316.316,0,0,1,.054.216q.053.27.161.647.107.27.162.377A2.906,2.906,0,0,0,606.189,375.018Z" transform="translate(-584.737 -349.104)" fill="#4c4c4e"/>
        <path id="Path_28698" data-name="Path 28698" d="M695.348,328.281a11.781,11.781,0,0,1,1.131,5.036,9.653,9.653,0,0,1-1.347,4.929,8.419,8.419,0,0,1-3.421,2.963,4.757,4.757,0,0,1-4.121.161,4.1,4.1,0,0,1-2.694-3.1,4.2,4.2,0,0,1,1.131-3.959,1.072,1.072,0,0,1,1.778,1.078,2.042,2.042,0,0,0-.054,1.266,1.437,1.437,0,0,0,.7,1.1q.538.216,1.508-.592a5.377,5.377,0,0,0,1.67-5.333q-.539-3.608-3.609-3.609a4.409,4.409,0,0,0-4.094,2.047q0,1.024.108,5.171a58.1,58.1,0,0,1-.054,6.141,1.669,1.669,0,0,1-1.508,1.724,1.942,1.942,0,0,1-1.185-.3,1.352,1.352,0,0,1-.7-.943q-.27-1.669-.485-7.111-.161-4.363-.216-7.111,0-.808-.081-2.855t-.081-3.151q0-1.1.054-2.774T680,316a20.735,20.735,0,0,1,.458-2.344,19.052,19.052,0,0,1,.835-2.478A5.939,5.939,0,0,1,682.77,309a3.308,3.308,0,0,1,2.128-.916,3,3,0,0,1,1.966.593,3.9,3.9,0,0,1,1.32,1.67,9.477,9.477,0,0,1-.162,5.171,18.006,18.006,0,0,1-4.417,7.973q.053.808.108,2.424a7.94,7.94,0,0,1,3.394-1.562,7.7,7.7,0,0,1,4.9.512A6.681,6.681,0,0,1,695.348,328.281ZM683.5,317.345q-.054,1.078,0,2.532a17.345,17.345,0,0,0,2.262-6.41q.376-2.37-.485-2.693-.7-.323-1.131,1.077A20.391,20.391,0,0,0,683.5,317.345Z" transform="translate(-644.808 -308.076)" fill="#4c4c4e"/>
        <path id="Path_28699" data-name="Path 28699" d="M771.486,357.7a1.079,1.079,0,0,1,1.535-.108,1.113,1.113,0,0,1,.35,1.508A14.9,14.9,0,0,1,772,361.422a12.579,12.579,0,0,1-1.8,1.993,8.668,8.668,0,0,1-2.128,1.428,4.74,4.74,0,0,1-2.424.4,5.491,5.491,0,0,1-2.613-.97,6.265,6.265,0,0,1-2.316-2.72,8.017,8.017,0,0,1-.754-3.636q.053-1.185.377-3.932a22.106,22.106,0,0,1,.7-3.933,1.858,1.858,0,0,1,1.212-1.212,1.828,1.828,0,0,1,1.643.189,1.666,1.666,0,0,1,.754,1.508,43.377,43.377,0,0,1-.377,6.087,6.338,6.338,0,0,0,.7,4.256,1.891,1.891,0,0,0,1.293.754,2.407,2.407,0,0,0,1.508-.485,11.805,11.805,0,0,0,1.4-1.077q.592-.538,1.347-1.373A10.424,10.424,0,0,1,771.486,357.7Zm-6.195-12.444a1.885,1.885,0,0,1-1.832,1.077,1.83,1.83,0,0,1-1.8-1.077,2.337,2.337,0,0,1,0-2.128,1.836,1.836,0,0,1,1.8-1.05,1.892,1.892,0,0,1,1.832,1.05A2.239,2.239,0,0,1,765.291,345.261Z" transform="translate(-704.947 -333.568)" fill="#4c4c4e"/>
        <path id="Path_28700" data-name="Path 28700" d="M817.728,373.1a.957.957,0,0,1,1.4-.189.99.99,0,0,1,.539,1.32,12.509,12.509,0,0,1-3.609,4.875,11.524,11.524,0,0,1-5.387,2.559,10.526,10.526,0,0,1-4.956-.161,8.11,8.11,0,0,1-4.363-3.879,11.413,11.413,0,0,1-1.158-4.2,10.607,10.607,0,0,1,.592-4.471,6.858,6.858,0,0,1,2.559-3.447,6.328,6.328,0,0,1,5.387-1.185q2.8.755,2.747,4.148a7.346,7.346,0,0,1-1.535,4.66,6.542,6.542,0,0,1-4.067,2.451,2.98,2.98,0,0,0,1.966,1.535,9.649,9.649,0,0,0,3.044.135,6.579,6.579,0,0,0,3.07-.97A20.849,20.849,0,0,0,817.728,373.1Zm-10.019-5.279a3.724,3.724,0,0,0-2.209,2.289,6.542,6.542,0,0,0-.323,3.528,5.521,5.521,0,0,0,3.34-2.693,3.921,3.921,0,0,0,.539-2.478q-.054-.7-.377-.835A1.259,1.259,0,0,0,807.709,367.822Z" transform="translate(-735.083 -350.095)" fill="#4c4c4e"/>
      </g>
      <path id="Path_28701" data-name="Path 28701" d="M433.9,281.425a.9.9,0,0,1-.9-.9V247.1a.9.9,0,0,1,1.791,0V280.53A.9.9,0,0,1,433.9,281.425Zm5.623-.9V247.1a.9.9,0,0,0-1.791,0V280.53a.9.9,0,0,0,1.791,0Zm3.832-34.32a.9.9,0,0,0-.9.9V280.53a.9.9,0,0,0,1.791,0V247.1A.9.9,0,0,0,443.354,246.21Zm3.867,39.591H429.988v2.23a1.791,1.791,0,0,1-3.582,0V250.885a12.2,12.2,0,0,1,24.4,0v37.146a1.791,1.791,0,0,1-3.582,0Zm0-1.791V250.885a8.617,8.617,0,1,0-17.233,0V284.01Z" transform="translate(-426.406 -238.687)" fill="#af8b62"/>
    </g>
    <path id="Path_28702" data-name="Path 28702" d="M728.849,260.358c-.307-.245-.61-.495-.921-.735-1.032-.8-1.581-.7-1.888.538a26.777,26.777,0,0,0-.533,3.7c-.128,1.241-.163,2.492-.27,3.736a4.333,4.333,0,0,1-.268.88l-.343.052c-.3-.749-.659-1.48-.881-2.251a6.887,6.887,0,0,0-3.778-4.554c-1.388-.669-1.571-1.534-.838-2.952.379-.733,1.021-1.076,1.6-.491a17.333,17.333,0,0,1,2.589,3.261,21.869,21.869,0,0,1,1.338,3.514c.2-1.886.33-3.531.558-5.162a5.646,5.646,0,0,1,.629-2.008c.276-.479.868-1.123,1.28-1.095a2.372,2.372,0,0,1,1.718.989,7.473,7.473,0,0,1,.4,2.429Z" transform="translate(-219.11 -13.566)" fill="#af8b62"/>
    <path id="Path_28703" data-name="Path 28703" d="M719.582,448.817c.408,1.379.065,1.973-1.07,2.408-3.837,1.47-7.626,3.068-11.5,4.644a1.325,1.325,0,0,1,.645-1.783C711.6,452.319,715.554,450.592,719.582,448.817Z" transform="translate(-210.266 -157.514)" fill="#af8b62"/>
    <path id="Path_28704" data-name="Path 28704" d="M592.018,311.841c.408,1.379.065,1.973-1.07,2.408-3.837,1.47-7.626,3.068-11.5,4.644a1.325,1.325,0,0,1,.645-1.783C584.032,315.343,587.989,313.616,592.018,311.841Z" transform="translate(-114.644 -54.836)" fill="#af8b62"/>
    <path id="Path_28705" data-name="Path 28705" d="M586.556,296.245c.471.169.787.294,1.111.4a2.194,2.194,0,0,1,1.555,3.18,1.461,1.461,0,0,1-1.836,1.063,2.06,2.06,0,0,1-1.162-1.452A16.624,16.624,0,0,1,586.556,296.245Zm-.019,1.281a5.144,5.144,0,0,0,.676,1.691c.2.232.938,0,1.675-.033Z" transform="translate(-119.791 -43.146)" fill="#af8b62"/>
    <path id="Path_28706" data-name="Path 28706" d="M735.4,307.547c1.275,1.3.64,4.091,3.488,4.454-.316-1.745-1.989-3.1-.832-5a40.745,40.745,0,0,1,1.474,4.175,2.184,2.184,0,0,1-.735,2.587c-.655.405-1.569-.007-2.6-1.042-.049.035-.13.062-.145.11-.307.954-.686,1.908-1.928,1.7-1.192-.2-1.335-1.233-1.414-2.211-.083-1.026-.139-2.056-.162-3.085a8.709,8.709,0,0,1,.152-1.276l.32,0c.1,1.043.185,2.088.316,3.127.1.793.2,1.672,1.317,1.6.852-.055,1.227-.94.97-2.039-.233-1-.422-2-.631-3.005Z" transform="translate(-229.482 -51.211)" fill="#af8b62"/>
  </g>
</svg>
